<?xml version="1.0" standalone="no"?>
<!DOCTYPE svg PUBLIC "-//W3C//DTD SVG 20010904//EN"
 "http://www.w3.org/TR/2001/REC-SVG-20010904/DTD/svg10.dtd">
<svg version="1.0" xmlns="http://www.w3.org/2000/svg"
 width="700.000000pt" height="700.000000pt" viewBox="0 0 700.000000 700.000000"
 preserveAspectRatio="xMidYMid meet">
<metadata>
Created by potrace 1.14, written by Peter Selinger 2001-2017
</metadata>
<g transform="translate(0.000000,700.000000) scale(0.100000,-0.100000)"
fill="#000000" stroke="none">
<path d="M925 6989 c-449 -47 -814 -383 -906 -834 -17 -80 -25 -4490 -9 -4666
31 -348 206 -626 510 -809 101 -60 192 -96 312 -121 90 -18 164 -19 2398 -19
1888 1 2319 3 2380 14 247 45 461 174 625 377 96 119 150 225 198 389 l21 75
3 2338 c3 2308 3 2339 -17 2436 -63 312 -270 578 -559 721 -109 54 -230 88
-359 100 -131 12 -4478 11 -4597 -1z m4320 -4898 c56 -15 101 -14 136 5 54 28
60 60 70 364 8 257 25 450 50 598 l11 63 92 -7 c50 -3 92 -7 92 -8 1 0 -3 -57
-9 -126 -17 -216 -14 -763 6 -937 37 -323 100 -594 200 -855 l25 -66 -23 -22
-24 -22 -133 46 c-451 154 -836 206 -1418 191 -162 -4 -329 -8 -370 -9 l-75
-1 -3 88 c-1 48 -1 87 1 87 2 0 28 4 57 10 94 18 350 39 595 50 259 11 314 22
359 67 14 14 31 43 38 64 10 34 8 44 -13 84 -17 31 -388 410 -1209 1233 -651
653 -1628 1631 -2170 2174 l-985 988 155 156 155 156 2175 -2180 c1905 -1910
2180 -2182 2215 -2191z m616 4172 c-90 -267 -142 -529 -172 -873 -14 -164 -15
-679 -2 -845 6 -66 10 -121 9 -121 0 -1 -42 -4 -92 -8 l-92 -7 -12 83 c-20
139 -29 235 -40 423 -24 403 -26 428 -47 470 -28 54 -54 76 -100 82 -28 4 -51
-1 -80 -15 -26 -14 -266 -249 -664 -652 l-624 -630 -154 154 -154 155 624 631
c399 404 628 643 636 663 16 45 16 123 -1 156 -26 48 -52 54 -316 62 -267 9
-414 20 -587 46 l-113 16 0 95 0 95 89 -7 c203 -16 528 -23 721 -15 411 17
782 86 1085 202 l90 34 23 -22 24 -22 -51 -150z m-3183 -3056 l152 -152 -988
-988 -987 -987 -154 154 -155 155 984 986 c541 542 986 985 990 985 3 0 74
-69 158 -153z"/>
</g>
</svg>
