<?xml version="1.0" encoding="UTF-8" standalone="yes"?>
<!DOCTYPE svg PUBLIC "-//W3C//DTD SVG 1.1//EN" "http://www.w3.org/Graphics/SVG/1.1/DTD/svg11.dtd">

<svg width="87" height="87" viewBox="0 0 87 87"
  xmlns="http://www.w3.org/2000/svg"
  xmlns:xlink="http://www.w3.org/1999/xlink" version="1.1" baseProfile="full">
  <g transform="scale(1,-1) translate(0,-130)">
    <path d="M 69.786996 1.066297 L 71.063096 1.261097 L 72.294696 1.577797 L 73.475496 2.009897 L 74.598996 2.551097 L 75.658596 3.194897 L 76.647996 3.934697 L 77.560696 4.764197 L 78.390196 5.676897 L 79.129996 6.666297 L 79.773796 7.725897 L 80.314996 8.849397 L 80.747196 10.030197 L 81.063796 11.261797 L 81.258596 12.537897 L 81.324996 13.851997 L 81.324996 68.472897 L 81.258596 69.786997 L 81.063796 71.063097 L 80.747196 72.294697 L 80.314996 73.475497 L 79.773796 74.598997 L 79.129996 75.658597 L 78.390196 76.647997 L 77.560696 77.560697 L 76.647996 78.390197 L 75.658596 79.129997 L 74.598996 79.773797 L 73.475496 80.314997 L 72.294696 80.747097 L 71.063096 81.063797 L 69.786996 81.258597 L 68.472896 81.324997 L 13.851996 81.324997 L 12.537896 81.258597 L 11.261796 81.063797 L 10.030196 80.747097 L 8.849296 80.314997 L 7.725896 79.773797 L 6.666296 79.129997 L 5.676896 78.390197 L 4.764196 77.560697 L 3.934696 76.647997 L 3.194896 75.658597 L 2.551096 74.598997 L 2.009896 73.475497 L 1.577696 72.294697 L 1.260996 71.063097 L 1.066296 69.786997 L 0.999996 68.472897 L 0.999996 13.851997 L 1.066296 12.537897 L 1.260996 11.261797 L 1.577696 10.030197 L 2.009896 8.849397 L 2.551096 7.725897 L 3.194896 6.666297 L 3.934696 5.676897 L 4.764196 4.764197 L 5.676896 3.934697 L 6.666296 3.194897 L 7.725896 2.551097 L 8.849296 2.009897 L 10.030196 1.577797 L 11.261796 1.261097 L 12.537896 1.066297 L 13.851996 0.999997 L 68.472896 0.999997 Z M 46.146796 49.987297 L 61.508596 65.430697 L 61.735796 65.744797 L 61.917096 66.166097 L 62.037096 66.648697 L 62.080596 67.146697 L 62.028496 67.639197 L 61.878796 68.022497 L 61.640996 68.310097 L 61.324696 68.515297 L 60.939496 68.651597 L 60.494796 68.732397 L 59.465796 68.780897 L 56.926396 68.816597 L 54.287296 68.944297 L 52.966396 69.052197 L 51.663596 69.194497 L 50.393396 69.375197 L 49.170196 69.597997 L 49.251896 71.885897 L 52.939096 71.661197 L 54.801896 71.587197 L 56.687596 71.559097 L 58.869596 71.595097 L 61.059196 71.709697 L 63.248796 71.912397 L 65.430696 72.212797 L 67.597296 72.620397 L 69.740996 73.144797 L 71.853996 73.795597 L 73.928696 74.582397 L 74.500696 74.010397 L 73.713896 71.877897 L 73.063096 69.712897 L 72.538696 67.521097 L 72.131096 65.308197 L 71.830696 63.079897 L 71.627996 60.842097 L 71.513396 58.600497 L 71.477396 56.360797 L 71.505396 54.583497 L 71.579496 52.806297 L 71.804196 49.251897 L 69.516296 49.170197 L 69.320296 50.406797 L 69.158796 51.663597 L 68.923896 54.226097 L 68.780896 56.834397 L 68.699196 59.465797 L 68.671996 59.987497 L 68.589396 60.498697 L 68.449296 60.981097 L 68.249796 61.416697 L 67.988996 61.787097 L 67.664996 62.074197 L 67.275896 62.259797 L 66.819796 62.325697 L 66.450796 62.278397 L 66.074196 62.131597 L 65.682196 61.877597 L 65.267296 61.508597 L 49.987296 46.146797 Z M 71.796196 8.529297 L 69.631196 9.180097 L 67.439396 9.704497 L 65.226396 10.112097 L 62.998196 10.412497 L 60.760396 10.615197 L 58.518796 10.729797 L 56.279096 10.765797 L 54.501796 10.737697 L 52.724596 10.663697 L 49.170196 10.438997 L 49.088496 12.726897 L 50.325096 12.922897 L 51.581896 13.084397 L 54.144296 13.319297 L 56.752696 13.462297 L 59.384096 13.543997 L 59.905796 13.571097 L 60.416996 13.653797 L 60.899396 13.793897 L 61.334896 13.993397 L 61.705396 14.254197 L 61.992496 14.578197 L 62.178096 14.967297 L 62.243996 15.423397 L 62.196696 15.792397 L 62.049896 16.168997 L 61.795796 16.560997 L 61.426896 16.975897 L 7.824196 70.741997 L 11.664696 74.582397 L 65.348996 20.734597 L 65.663096 20.507397 L 66.084396 20.326097 L 66.566996 20.205997 L 67.064896 20.162597 L 67.557496 20.214697 L 67.940796 20.364397 L 68.228396 20.602197 L 68.433596 20.918497 L 68.569896 21.303697 L 68.650696 21.748297 L 68.699196 22.777397 L 68.734896 25.316797 L 68.862596 27.955897 L 68.970496 29.276797 L 69.112796 30.579597 L 69.293496 31.849797 L 69.516296 33.072997 L 71.804196 32.991297 L 71.579496 29.304097 L 71.505396 27.441297 L 71.477396 25.555597 L 71.513396 23.373597 L 71.627996 21.183997 L 71.830696 18.994397 L 72.131096 16.812497 L 72.538696 14.645797 L 73.063096 12.502197 L 73.713896 10.389197 L 74.500696 8.314497 L 73.928696 7.742497 Z M 7.824196 11.582897 L 32.337596 36.178097 L 36.178096 32.337597 L 11.664696 7.742497 Z" transform="scale(1.000000,1.000000) translate(5.000004,42.675003)" fill="#000000" opacity="0.250000"></path>
    <path d="M 69.786996 1.066297 L 71.063096 1.261097 L 72.294696 1.577797 L 73.475496 2.009897 L 74.598996 2.551097 L 75.658596 3.194897 L 76.647996 3.934697 L 77.560696 4.764197 L 78.390196 5.676897 L 79.129996 6.666297 L 79.773796 7.725897 L 80.314996 8.849397 L 80.747196 10.030197 L 81.063796 11.261797 L 81.258596 12.537897 L 81.324996 13.851997 L 81.324996 68.472897 L 81.258596 69.786997 L 81.063796 71.063097 L 80.747196 72.294697 L 80.314996 73.475497 L 79.773796 74.598997 L 79.129996 75.658597 L 78.390196 76.647997 L 77.560696 77.560697 L 76.647996 78.390197 L 75.658596 79.129997 L 74.598996 79.773797 L 73.475496 80.314997 L 72.294696 80.747097 L 71.063096 81.063797 L 69.786996 81.258597 L 68.472896 81.324997 L 13.851996 81.324997 L 12.537896 81.258597 L 11.261796 81.063797 L 10.030196 80.747097 L 8.849396 80.314997 L 7.725896 79.773797 L 6.666296 79.129997 L 5.676896 78.390197 L 4.764196 77.560697 L 3.934696 76.647997 L 3.194896 75.658597 L 2.551096 74.598997 L 2.009896 73.475497 L 1.577796 72.294697 L 1.261096 71.063097 L 1.066296 69.786997 L 0.999996 68.472897 L 0.999996 13.851997 L 1.066296 12.537897 L 1.261096 11.261797 L 1.577796 10.030197 L 2.009896 8.849397 L 2.551096 7.725897 L 3.194896 6.666297 L 3.934696 5.676897 L 4.764196 4.764197 L 5.676896 3.934697 L 6.666296 3.194897 L 7.725896 2.551097 L 8.849396 2.009897 L 10.030196 1.577797 L 11.261796 1.261097 L 12.537896 1.066297 L 13.851996 0.999997 L 68.472896 0.999997 Z M 46.146796 49.987297 L 61.508596 65.430697 L 61.735796 65.744797 L 61.917096 66.166097 L 62.037096 66.648697 L 62.080596 67.146697 L 62.028496 67.639197 L 61.878796 68.022497 L 61.640996 68.310097 L 61.324696 68.515297 L 60.939496 68.651597 L 60.494796 68.732397 L 59.465796 68.780897 L 56.926396 68.816597 L 54.287296 68.944297 L 52.966396 69.052197 L 51.663596 69.194497 L 50.393396 69.375197 L 49.170196 69.597997 L 49.251896 71.885897 L 52.939096 71.661197 L 54.801896 71.587197 L 56.687596 71.559097 L 58.869596 71.595097 L 61.059196 71.709697 L 63.248796 71.912397 L 65.430696 72.212797 L 67.597296 72.620397 L 69.740996 73.144797 L 71.853996 73.795597 L 73.928696 74.582397 L 74.500696 74.010397 L 73.713896 71.877897 L 73.063096 69.712897 L 72.538696 67.521097 L 72.131096 65.308197 L 71.830696 63.079897 L 71.627996 60.842097 L 71.513396 58.600497 L 71.477396 56.360797 L 71.505396 54.583497 L 71.579496 52.806297 L 71.804196 49.251897 L 69.516296 49.170197 L 69.320296 50.406797 L 69.158796 51.663597 L 68.923896 54.226097 L 68.780896 56.834397 L 68.699196 59.465797 L 68.671996 59.987497 L 68.589396 60.498697 L 68.449296 60.981097 L 68.249796 61.416697 L 67.988996 61.787097 L 67.664996 62.074197 L 67.275896 62.259797 L 66.819796 62.325697 L 66.450796 62.278397 L 66.074196 62.131597 L 65.682196 61.877597 L 65.267296 61.508597 L 49.987296 46.146797 Z M 71.796196 8.529297 L 69.631196 9.180097 L 67.439396 9.704497 L 65.226396 10.112097 L 62.998196 10.412497 L 60.760396 10.615197 L 58.518796 10.729797 L 56.279096 10.765797 L 54.501796 10.737697 L 52.724596 10.663697 L 49.170196 10.438997 L 49.088496 12.726897 L 50.325096 12.922897 L 51.581896 13.084397 L 54.144296 13.319297 L 56.752696 13.462297 L 59.384096 13.543997 L 59.905796 13.571097 L 60.416996 13.653797 L 60.899396 13.793897 L 61.334896 13.993397 L 61.705396 14.254197 L 61.992496 14.578197 L 62.178096 14.967297 L 62.243996 15.423397 L 62.196696 15.792397 L 62.049896 16.168997 L 61.795796 16.560997 L 61.426896 16.975897 L 7.824196 70.741997 L 11.664696 74.582397 L 65.348996 20.734597 L 65.663096 20.507397 L 66.084396 20.326097 L 66.566996 20.205997 L 67.064896 20.162597 L 67.557496 20.214697 L 67.940796 20.364397 L 68.228396 20.602197 L 68.433596 20.918497 L 68.569896 21.303697 L 68.650696 21.748297 L 68.699196 22.777397 L 68.734896 25.316797 L 68.862596 27.955897 L 68.970496 29.276797 L 69.112796 30.579597 L 69.293496 31.849797 L 69.516296 33.072997 L 71.804196 32.991297 L 71.579496 29.304097 L 71.505396 27.441297 L 71.477396 25.555597 L 71.513396 23.373597 L 71.627996 21.183997 L 71.830696 18.994397 L 72.131096 16.812497 L 72.538696 14.645797 L 73.063096 12.502197 L 73.713896 10.389197 L 74.500696 8.314497 L 73.928696 7.742497 Z M 7.824196 11.582897 L 32.337596 36.178097 L 36.178096 32.337597 L 11.664696 7.742497 Z" transform="scale(1.000000,1.000000) translate(-0.999996,48.675003)" fill="#cf990e" opacity="1.000000"></path>
  </g>
</svg>